PathFileType	4	(X/Y/Z)	Walk5.trc
DataRate	CameraRate	NumFrames	NumMarkers	Units	OrigDataRate	OrigDataStartFrame	OrigNumFrames
200.000000	200.000000	7	61	mm	200.000000	674	813
Frame#	Times		RCAR		LToe		LMT5		LTB1		RWRU		LLFC		RWRR		RFHD		RACR1		RFA1		LMT1		LUA1		LFA1		LTH2		LElbow		STRN		LACR1		LCAR		LASI		RTH3		RTB2		LWRU		RPSI		RLFC		LFHD		LWRR		C7		LPSI		RToe		RMT1		RMT5		RMFC		CLAV		RTB3		RTB1		LMFC		RTB4		LTH1		LTH3		RTH2		RCAL		RASI		RLMAL		LTB2		RMMAL		LTB4		LBHD		RBHD		RTH4		RBack		LTB3		RUA1		LMMAL		LTH4		RElbow		RTH1		LCAL		T10		LElbowM		LLMAL		RElbowM
			X1	Y1	Z1	X2	Y2	Z2	X3	Y3	Z3	X4	Y4	Z4	X5	Y5	Z5	X6	Y6	Z6	X7	Y7	Z7	X8	Y8	Z8	X9	Y9	Z9	X10	Y10	Z10	X11	Y11	Z11	X12	Y12	Z12	X13	Y13	Z13	X14	Y14	Z14	X15	Y15	Z15	X16	Y16	Z16	X17	Y17	Z17	X18	Y18	Z18	X19	Y19	Z19	X20	Y20	Z20	X21	Y21	Z21	X22	Y22	Z22	X23	Y23	Z23	X24	Y24	Z24	X25	Y25	Z25	X26	Y26	Z26	X27	Y27	Z27	X28	Y28	Z28	X29	Y29	Z29	X30	Y30	Z30	X31	Y31	Z31	X32	Y32	Z32	X33	Y33	Z33	X34	Y34	Z34	X35	Y35	Z35	X36	Y36	Z36	X37	Y37	Z37	X38	Y38	Z38	X39	Y39	Z39	X40	Y40	Z40	X41	Y41	Z41	X42	Y42	Z42	X43	Y43	Z43	X44	Y44	Z44	X45	Y45	Z45	X46	Y46	Z46	X47	Y47	Z47	X48	Y48	Z48	X49	Y49	Z49	X50	Y50	Z50	X51	Y51	Z51	X52	Y52	Z52	X53	Y53	Z53	X54	Y54	Z54	X55	Y55	Z55	X56	Y56	Z56	X57	Y57	Z57	X58	Y58	Z58	X59	Y59	Z59	X60	Y60	Z60	X61	Y61	Z61

674	3.37	734.58	875.07	414.87	973.91	101.1	-24.953	888.26	69.647	-97.165	743.91	385.81	-6.7701	667.49	898.9	416.16	672.84	519.52	-105.94	727.65	918.61	354.84	698.2	1692.7	149.67	560.39	1497	263.64	653.4	1043.9	389.77	919.39	89.629	-12.692	508.32	1344.2	-188.07	536.23	1045.4	-252.09	666.24	761.83	-132.63	458.73	1178.6	-233.41	666.11	1290	68.433	533.4	1527.4	-106.8	573.88	881.59	-272.73	598.9	1030.6	-90.348	418.63	645.65	249.29	401.14	266.54	198.31	501.7	917	-263.44	366.04	1068.7	106.42	405.22	505.92	235.03	700.39	1698.4	44.41	583.96	918.66	-216.61	443.68	1557.9	93.664	370.43	1070.4	-2.2804	510.5	33.844	118.81	459.72	50.913	103.87	413.7	30.511	201.85	401.87	504.47	85.698	606.57	1465.5	64.004	376.42	190.45	127.42	426.44	355.25	146.53	683.51	514.05	37.008	401.59	272.15	136.17	581.72	818.09	-156.99	644.86	656.95	-133.64	482.79	725.71	263.71	235.42	47.999	122.78	579.51	1035.9	228.51	299.61	77.184	164.37	778.85	305.46	-67.112	331.01	104.31	72.194	755.32	301.84	-7.7114	533.47	1693.1	21.411	527.06	1688.8	163.1	423.43	728.57	257.53	390.31	1435.2	213.09	770.85	217.49	-9.5655	563.71	1318.2	338.41	774.32	113.88	23.537	613.83	737.55	-147.48	545.7	1155	385.27	430.02	816.31	268.48	704.32	44.475	-39.486	389.16	1203.1	60.107	433.39	1151.2	-146.24	763.17	87.299	-77.102	515.49	1123.3	298.37
675	3.375	741.32	875.03	414.01	986.55	105.06	-24.236	901.87	71.878	-96.788	750.83	385.66	-6.8594	674.14	898.58	415.43	677.42	518.26	-106.26	734.12	918.59	354.04	703.19	1692	149.45	565.27	1496.2	263.32	659.42	1043.6	389.19	932.22	92.613	-12.233	513.68	1343.4	-188.34	541.09	1044.4	-252.22	670.33	760.03	-133.06	463.95	1177.7	-233.49	671.35	1289.3	68.428	538.83	1526.6	-107.16	578.26	880.39	-272.88	604.63	1029.7	-90.306	421.58	645.52	249.08	402.19	266.42	198.23	506.18	916.03	-263.58	371.24	1068	105.69	407.46	505.83	234.83	705.45	1697.7	44.182	588.45	917.41	-216.74	448.77	1557.1	93.197	375.92	1069.6	-2.9869	510.58	33.807	118.81	459.83	50.893	103.87	413.69	30.487	201.8	404.47	504.33	85.506	611.76	1464.7	63.785	377.19	190.42	127.35	428.05	354.96	146.47	687.85	512.61	36.976	402.78	272.01	136.04	586.03	816.7	-157.22	648.47	655.24	-134.1	486.14	725.23	263.39	235.51	48.571	122.63	584.85	1035.3	228.37	299.79	77.546	164.24	787.44	305.99	-67.201	331.35	104.53	72.12	763.94	301.92	-7.8223	538.56	1692.3	21.068	532.04	1688	162.76	426.77	728.43	257.36	395.3	1434.4	212.55	781.19	217.9	-9.7072	568.88	1317.4	338.08	786.52	114.32	23.432	617.78	736.01	-147.81	551.28	1154.2	384.91	433.81	816.13	268.25	718.06	43.561	-39.935	394.41	1202.2	59.412	438.64	1150.4	-146.3	776.3	87.542	-77.256	521.09	1122.5	298.01
676	3.38	748.03	874.96	413.16	998.83	109.01	-23.592	915.06	74.133	-96.385	757.7	385.52	-6.9403	680.75	898.24	414.7	682.02	517	-106.56	740.56	918.54	353.25	708.2	1691.2	149.21	570.16	1495.4	262.98	665.41	1043.2	388.59	944.71	95.632	-11.791	519.06	1342.5	-188.64	545.98	1043.3	-252.37	674.43	758.23	-133.55	469.21	1176.8	-233.59	676.62	1288.6	68.407	544.29	1525.8	-107.54	582.65	879.18	-273.03	610.37	1028.8	-90.262	424.56	645.41	248.86	403.26	266.32	198.15	510.69	915.05	-263.72	376.47	1067.3	104.94	409.74	505.76	234.63	710.54	1697	43.94	592.98	916.16	-216.89	453.88	1556.2	92.706	381.44	1068.8	-3.7107	510.65	33.778	118.81	459.93	50.874	103.87	413.68	30.46	201.73	407.1	504.21	85.308	616.97	1464	63.549	377.97	190.42	127.27	429.67	354.68	146.4	692.19	511.17	36.928	403.99	271.9	135.9	590.33	815.3	-157.46	652.11	653.52	-134.58	489.52	724.77	263.08	235.61	49.187	122.46	590.27	1034.7	228.22	299.97	77.941	164.09	795.85	306.5	-67.267	331.72	104.77	72.031	772.43	302.02	-7.8947	543.67	1691.5	20.709	537.03	1687.2	162.41	430.15	728.31	257.2	400.3	1433.5	211.98	791.32	218.35	-9.7831	574.05	1316.7	337.73	798.46	114.85	23.435	621.75	734.45	-148.17	556.85	1153.4	384.52	437.63	815.96	268.03	731.47	42.753	-40.175	399.69	1201.4	58.702	443.92	1149.6	-146.38	789.07	87.851	-77.274	526.67	1121.6	297.63
677	3.385	754.69	874.88	412.31	1010.7	112.93	-23.033	927.8	76.374	-95.964	764.5	385.37	-7.0085	687.33	897.89	413.96	686.65	515.72	-106.84	746.97	918.46	352.46	713.23	1690.5	148.96	575.06	1494.6	262.63	671.37	1042.7	388	956.84	98.647	-11.374	524.48	1341.6	-188.95	550.91	1042.2	-252.54	678.56	756.44	-134.09	474.5	1175.9	-233.72	681.91	1287.8	68.37	549.79	1524.9	-107.94	587.07	877.96	-273.18	616.14	1027.9	-90.216	427.58	645.3	248.63	404.35	266.23	198.05	515.23	914.07	-263.87	381.74	1066.6	104.18	412.06	505.7	234.41	715.65	1696.2	43.684	597.54	914.9	-217.03	459.01	1555.4	92.192	386.99	1068	-4.4501	510.72	33.756	118.81	460.04	50.857	103.87	413.67	30.431	201.65	409.74	504.1	85.104	622.2	1463.2	63.296	378.77	190.45	127.18	431.32	354.41	146.31	696.55	509.75	36.87	405.22	271.81	135.75	594.64	813.89	-157.69	655.81	651.81	-135.05	492.95	724.32	262.78	235.72	49.848	122.27	595.75	1034.1	228.07	300.16	78.37	163.94	804.07	306.97	-67.305	332.09	105.03	71.926	780.77	302.13	-7.9258	548.8	1690.6	20.334	542.05	1686.3	162.04	433.58	728.19	257.04	405.31	1432.6	211.38	801.22	218.82	-9.7901	579.21	1316	337.36	810.12	115.44	23.544	625.75	732.9	-148.57	562.4	1152.6	384.12	441.5	815.79	267.82	744.52	42.032	-40.202	404.99	1200.5	57.98	449.22	1148.9	-146.49	801.45	88.198	-77.156	532.25	1120.8	297.23
678	3.39	761.32	874.77	411.47	1022.2	116.77	-22.567	940.07	78.563	-95.532	771.23	385.21	-7.0594	693.86	897.51	413.22	691.32	514.43	-107.09	753.34	918.37	351.68	718.28	1689.8	148.69	579.97	1493.8	262.25	677.32	1042.3	387.39	968.58	101.62	-10.989	529.94	1340.8	-189.3	555.86	1041.1	-252.72	682.75	754.67	-134.68	479.82	1175	-233.87	687.23	1287.1	68.316	555.32	1524.1	-108.36	591.52	876.72	-273.32	621.93	1026.9	-90.17	430.66	645.2	248.41	405.47	266.16	197.94	519.8	913.08	-264.03	387.05	1065.9	103.41	414.43	505.66	234.2	720.78	1695.5	43.412	602.13	913.65	-217.19	464.16	1554.5	91.653	392.57	1067.2	-5.2031	510.78	33.74	118.81	460.15	50.841	103.87	413.65	30.4	201.55	412.42	504.01	84.892	627.46	1462.4	63.025	379.58	190.51	127.07	432.99	354.17	146.21	700.93	508.36	36.807	406.47	271.75	135.6	598.98	812.47	-157.94	659.6	650.12	-135.51	496.43	723.89	262.48	235.84	50.556	122.07	601.28	1033.5	227.91	300.36	78.837	163.77	812.09	307.39	-67.312	332.48	105.33	71.807	788.96	302.24	-7.9131	553.95	1689.8	19.941	547.1	1685.5	161.65	437.05	728.09	256.89	410.34	1431.8	210.75	810.89	219.28	-9.7261	584.37	1315.2	336.97	821.47	116.07	23.758	629.8	731.35	-148.99	567.93	1151.8	383.69	445.42	815.62	267.61	757.18	41.379	-40.017	410.32	1199.6	57.249	454.55	1148.1	-146.63	813.41	88.557	-76.904	537.82	1119.9	296.82
679	3.395	767.9	874.65	410.63	1033.3	120.48	-22.198	951.85	80.66	-95.092	777.89	385.04	-7.089	700.35	897.11	412.48	696.02	513.13	-107.3	759.68	918.25	350.9	723.35	1689	148.4	584.89	1493	261.86	683.23	1041.9	386.79	979.92	104.5	-10.639	535.43	1339.9	-189.66	560.85	1040	-252.92	687.01	752.94	-135.32	485.17	1174.1	-234.05	692.59	1286.3	68.244	560.88	1523.3	-108.8	596	875.48	-273.47	627.74	1025.9	-90.127	433.78	645.12	248.18	406.61	266.1	197.81	524.41	912.09	-264.2	392.4	1065.2	102.63	416.84	505.64	233.97	725.92	1694.7	43.123	606.75	912.39	-217.36	469.33	1553.7	91.089	398.19	1066.4	-5.9674	510.84	33.73	118.8	460.26	50.828	103.87	413.64	30.366	201.44	415.12	503.94	84.675	632.74	1461.6	62.737	380.41	190.6	126.96	434.68	353.95	146.1	705.35	506.99	36.744	407.75	271.7	135.45	603.36	811.07	-158.19	663.48	648.47	-135.96	499.97	723.47	262.19	235.96	51.312	121.84	606.86	1032.8	227.74	300.56	79.344	163.6	819.92	307.74	-67.285	332.9	105.66	71.674	797	302.33	-7.8548	559.12	1689	19.53	552.16	1684.7	161.25	440.58	727.99	256.75	415.39	1430.8	210.09	820.3	219.72	-9.5902	589.52	1314.5	336.57	832.5	116.71	24.073	633.92	729.82	-149.43	573.44	1151	383.26	449.4	815.46	267.42	769.4	40.773	-39.625	415.67	1198.7	56.511	459.9	1147.4	-146.79	824.93	88.904	-76.524	543.39	1119	296.38
680	3.4	774.43	874.51	409.81	1043.9	124	-21.923	963.1	82.626	-94.647	784.48	384.83	-7.0937	706.8	896.7	411.74	700.77	511.8	-107.48	765.99	918.11	350.14	728.44	1688.2	148.09	589.82	1492.2	261.45	689.12	1041.4	386.18	990.83	107.25	-10.326	540.95	1339	-190.05	565.88	1038.9	-253.14	691.36	751.25	-136	490.57	1173.2	-234.26	697.97	1285.6	68.152	566.47	1522.5	-109.26	600.52	874.22	-273.63	633.57	1024.9	-90.089	436.97	645.04	247.95	407.78	266.06	197.68	529.06	911.1	-264.38	397.8	1064.4	101.84	419.3	505.63	233.75	731.09	1693.9	42.816	611.42	911.13	-217.54	474.51	1552.8	90.5	403.83	1065.6	-6.7409	510.89	33.725	118.8	460.37	50.818	103.88	413.63	30.33	201.31	417.86	503.89	84.451	638.04	1460.8	62.429	381.26	190.72	126.84	436.41	353.75	145.97	709.82	505.65	36.69	409.05	271.68	135.3	607.8	809.69	-158.45	667.5	646.85	-136.38	503.57	723.07	261.89	236.1	52.117	121.61	612.46	1032.2	227.57	300.78	79.89	163.42	827.54	308.01	-67.22	333.32	106.01	71.531	804.86	302.38	-7.749	564.31	1688.1	19.1	557.24	1683.8	160.82	444.17	727.91	256.6	420.45	1429.9	209.4	829.43	220.12	-9.3827	594.67	1313.7	336.15	843.17	117.34	24.484	638.13	728.31	-149.89	578.93	1150.1	382.8	453.44	815.3	267.24	781.17	40.196	-39.039	421.06	1197.8	55.769	465.28	1146.6	-146.99	835.98	89.21	-76.023	548.95	1118.1	295.92
